<svg width="20" height="22" viewBox="0 0 20 22" fill="none" xmlns="http://www.w3.org/2000/svg">
<path fill-rule="evenodd" clip-rule="evenodd" d="M8.49928 1.86145e-08C7.14387 0.000112153 5.80814 0.314987 4.60353 0.918355C3.39893 1.52172 2.36037 2.39609 1.57451 3.4685C0.788656 4.54091 0.278287 5.78027 0.0859852 7.08318C-0.106316 8.38609 0.0250263 9.71476 0.469055 10.9584C0.913084 12.2019 1.65692 13.3244 2.63851 14.232C3.6201 15.1397 4.81098 15.8062 6.11179 16.176C7.4126 16.5459 8.78562 16.6082 10.1163 16.3579C11.447 16.1077 12.6967 15.552 13.7613 14.7373L17.4133 18.2837C17.6019 18.4606 17.8545 18.5585 18.1167 18.5563C18.3789 18.554 18.6297 18.4519 18.8151 18.2719C19.0005 18.0918 19.1057 17.8483 19.108 17.5936C19.1102 17.339 19.0094 17.0937 18.8273 16.9106L15.1753 13.3642C16.1633 12.147 16.7784 10.6843 16.9504 9.14352C17.1223 7.60272 16.8441 6.04603 16.1475 4.65162C15.4509 3.2572 14.3642 2.08139 13.0116 1.25876C11.659 0.436123 10.0952 -0.000104046 8.49928 1.86145e-08ZM1.99928 8.25427C1.99928 6.5802 2.6841 4.9747 3.90308 3.79095C5.12207 2.6072 6.77537 1.94218 8.49928 1.94218C10.2232 1.94218 11.8765 2.6072 13.0955 3.79095C14.3145 4.9747 14.9993 6.5802 14.9993 8.25427C14.9993 9.92834 14.3145 11.5338 13.0955 12.7176C11.8765 13.9013 10.2232 14.5664 8.49928 14.5664C6.77537 14.5664 5.12207 13.9013 3.90308 12.7176C2.6841 11.5338 1.99928 9.92834 1.99928 8.25427Z" fill="black"/>
</svg>
